<svg width="100%" height="400" fill="none" xmlns="http://www.w3.org/2000/svg">
    <rect width="100%" height="1" fill="#ECEEF4" />
    <rect y="112" width="100%" height="1" fill="#ECEEF4" />
    <rect y="336" width="100%" height="1" fill="#ECEEF4" />
    <rect y="56" width="100%" height="1" fill="#ECEEF4" />
    <rect y="280" width="100%" height="1" fill="#ECEEF4" />
    <rect y="224" width="100%" height="1" fill="#ECEEF4" />
    <rect y="168" width="100%" height="1" fill="#ECEEF4" />
    <rect y="392" width="100%" height="1" fill="#ECEEF4" />
    <path transform="translate(250, 0)" d="M577.378 196.907C577.378 198.557 576.929 199.819 576.031 200.694C575.138 201.565 573.851 202 572.169 202H569.4V192.006H572.463C574.017 192.006 575.225 192.437 576.086 193.298C576.947 194.159 577.378 195.362 577.378 196.907ZM576.147 196.948C576.147 195.645 575.819 194.663 575.163 194.002C574.511 193.341 573.541 193.011 572.251 193.011H570.562V200.995H571.978C573.363 200.995 574.404 200.656 575.102 199.977C575.799 199.293 576.147 198.284 576.147 196.948ZM582.86 194.371C583.193 194.371 583.492 194.398 583.756 194.453L583.599 195.506C583.289 195.438 583.015 195.403 582.778 195.403C582.172 195.403 581.653 195.649 581.22 196.142C580.791 196.634 580.577 197.247 580.577 197.98V202H579.442V194.508H580.379L580.509 195.896H580.563C580.841 195.408 581.176 195.032 581.568 194.768C581.96 194.503 582.391 194.371 582.86 194.371ZM591.624 198.247C591.624 199.468 591.316 200.423 590.701 201.111C590.086 201.795 589.236 202.137 588.151 202.137C587.481 202.137 586.887 201.979 586.367 201.665C585.848 201.351 585.447 200.899 585.164 200.312C584.882 199.724 584.74 199.035 584.74 198.247C584.74 197.026 585.046 196.076 585.656 195.396C586.267 194.713 587.115 194.371 588.199 194.371C589.247 194.371 590.079 194.72 590.694 195.417C591.314 196.114 591.624 197.058 591.624 198.247ZM585.916 198.247C585.916 199.204 586.107 199.933 586.49 200.435C586.873 200.936 587.436 201.187 588.179 201.187C588.922 201.187 589.484 200.938 589.867 200.441C590.255 199.94 590.448 199.209 590.448 198.247C590.448 197.295 590.255 196.572 589.867 196.08C589.484 195.583 588.917 195.335 588.165 195.335C587.422 195.335 586.862 195.579 586.483 196.066C586.105 196.554 585.916 197.281 585.916 198.247ZM597.106 202.137C596.619 202.137 596.172 202.048 595.767 201.87C595.366 201.688 595.028 201.41 594.755 201.036H594.673C594.728 201.474 594.755 201.888 594.755 202.28V205.363H593.62V194.508H594.543L594.7 195.533H594.755C595.047 195.123 595.386 194.827 595.773 194.645C596.161 194.462 596.605 194.371 597.106 194.371C598.1 194.371 598.866 194.711 599.403 195.39C599.946 196.069 600.217 197.021 600.217 198.247C600.217 199.478 599.941 200.435 599.39 201.118C598.843 201.797 598.082 202.137 597.106 202.137ZM596.942 195.335C596.177 195.335 595.623 195.547 595.281 195.971C594.939 196.395 594.764 197.069 594.755 197.994V198.247C594.755 199.3 594.93 200.054 595.281 200.51C595.632 200.961 596.195 201.187 596.97 201.187C597.617 201.187 598.123 200.924 598.487 200.4C598.856 199.876 599.041 199.154 599.041 198.233C599.041 197.299 598.856 196.584 598.487 196.087C598.123 195.586 597.608 195.335 596.942 195.335ZM606.978 202H605.843V194.508H606.978V202ZM605.747 192.478C605.747 192.218 605.811 192.029 605.938 191.91C606.066 191.787 606.226 191.726 606.417 191.726C606.599 191.726 606.757 191.787 606.889 191.91C607.021 192.033 607.087 192.222 607.087 192.478C607.087 192.733 607.021 192.924 606.889 193.052C606.757 193.175 606.599 193.236 606.417 193.236C606.226 193.236 606.066 193.175 605.938 193.052C605.811 192.924 605.747 192.733 605.747 192.478ZM611.804 201.2C612.004 201.2 612.198 201.187 612.385 201.159C612.572 201.127 612.72 201.095 612.829 201.063V201.932C612.706 201.991 612.524 202.039 612.282 202.075C612.045 202.116 611.831 202.137 611.64 202.137C610.19 202.137 609.466 201.373 609.466 199.847V195.39H608.393V194.843L609.466 194.371L609.944 192.771H610.601V194.508H612.774V195.39H610.601V199.799C610.601 200.25 610.708 200.596 610.922 200.838C611.136 201.079 611.43 201.2 611.804 201.2ZM623.097 202V197.153C623.097 196.543 622.958 196.087 622.68 195.786C622.402 195.485 621.966 195.335 621.374 195.335C620.586 195.335 620.009 195.549 619.645 195.978C619.285 196.406 619.104 197.108 619.104 198.083V202H617.97V191.363H619.104V194.583C619.104 194.97 619.086 195.292 619.05 195.547H619.118C619.341 195.187 619.658 194.904 620.068 194.699C620.483 194.49 620.955 194.385 621.483 194.385C622.399 194.385 623.085 194.604 623.541 195.041C624.001 195.474 624.231 196.164 624.231 197.112V202H623.097ZM629.734 202.137C628.627 202.137 627.752 201.799 627.109 201.125C626.471 200.451 626.152 199.514 626.152 198.315C626.152 197.108 626.449 196.148 627.041 195.438C627.638 194.727 628.438 194.371 629.44 194.371C630.379 194.371 631.122 194.681 631.669 195.301C632.216 195.916 632.489 196.729 632.489 197.741V198.459H627.328C627.351 199.339 627.572 200.006 627.991 200.462C628.415 200.918 629.01 201.146 629.775 201.146C630.582 201.146 631.38 200.977 632.168 200.64V201.651C631.767 201.825 631.386 201.948 631.026 202.021C630.671 202.098 630.24 202.137 629.734 202.137ZM629.427 195.321C628.825 195.321 628.344 195.517 627.984 195.909C627.629 196.301 627.419 196.843 627.355 197.536H631.272C631.272 196.821 631.113 196.274 630.794 195.896C630.475 195.513 630.019 195.321 629.427 195.321ZM637.849 194.371C638.181 194.371 638.48 194.398 638.744 194.453L638.587 195.506C638.277 195.438 638.004 195.403 637.767 195.403C637.16 195.403 636.641 195.649 636.208 196.142C635.78 196.634 635.565 197.247 635.565 197.98V202H634.431V194.508H635.367L635.497 195.896H635.552C635.83 195.408 636.165 195.032 636.557 194.768C636.949 194.503 637.379 194.371 637.849 194.371ZM643.311 202.137C642.203 202.137 641.328 201.799 640.686 201.125C640.048 200.451 639.729 199.514 639.729 198.315C639.729 197.108 640.025 196.148 640.617 195.438C641.214 194.727 642.014 194.371 643.017 194.371C643.955 194.371 644.698 194.681 645.245 195.301C645.792 195.916 646.065 196.729 646.065 197.741V198.459H640.904C640.927 199.339 641.148 200.006 641.567 200.462C641.991 200.918 642.586 201.146 643.352 201.146C644.158 201.146 644.956 200.977 645.744 200.64V201.651C645.343 201.825 644.963 201.948 644.603 202.021C644.247 202.098 643.816 202.137 643.311 202.137ZM643.003 195.321C642.401 195.321 641.921 195.517 641.561 195.909C641.205 196.301 640.995 196.843 640.932 197.536H644.849C644.849 196.821 644.689 196.274 644.37 195.896C644.051 195.513 643.595 195.321 643.003 195.321ZM658.11 198.247C658.11 199.468 657.803 200.423 657.188 201.111C656.572 201.795 655.722 202.137 654.638 202.137C653.968 202.137 653.373 201.979 652.854 201.665C652.334 201.351 651.933 200.899 651.65 200.312C651.368 199.724 651.227 199.035 651.227 198.247C651.227 197.026 651.532 196.076 652.143 195.396C652.753 194.713 653.601 194.371 654.686 194.371C655.734 194.371 656.565 194.72 657.181 195.417C657.8 196.114 658.11 197.058 658.11 198.247ZM652.402 198.247C652.402 199.204 652.594 199.933 652.977 200.435C653.359 200.936 653.922 201.187 654.665 201.187C655.408 201.187 655.971 200.938 656.354 200.441C656.741 199.94 656.935 199.209 656.935 198.247C656.935 197.295 656.741 196.572 656.354 196.08C655.971 195.583 655.403 195.335 654.651 195.335C653.909 195.335 653.348 195.579 652.97 196.066C652.591 196.554 652.402 197.281 652.402 198.247ZM663.524 194.371C663.857 194.371 664.156 194.398 664.42 194.453L664.263 195.506C663.953 195.438 663.679 195.403 663.442 195.403C662.836 195.403 662.317 195.649 661.884 196.142C661.455 196.634 661.241 197.247 661.241 197.98V202H660.106V194.508H661.043L661.173 195.896H661.228C661.506 195.408 661.84 195.032 662.232 194.768C662.624 194.503 663.055 194.371 663.524 194.371ZM674.065 202L673.84 200.934H673.785C673.411 201.403 673.038 201.722 672.664 201.891C672.295 202.055 671.832 202.137 671.276 202.137C670.534 202.137 669.95 201.945 669.526 201.562C669.107 201.18 668.897 200.635 668.897 199.929C668.897 198.416 670.107 197.623 672.527 197.55L673.799 197.509V197.044C673.799 196.456 673.671 196.023 673.416 195.745C673.165 195.463 672.762 195.321 672.206 195.321C671.582 195.321 670.875 195.513 670.087 195.896L669.738 195.027C670.107 194.827 670.511 194.67 670.948 194.556C671.39 194.442 671.832 194.385 672.274 194.385C673.168 194.385 673.828 194.583 674.257 194.979C674.69 195.376 674.906 196.012 674.906 196.887V202H674.065ZM671.502 201.2C672.208 201.2 672.762 201.007 673.163 200.619C673.569 200.232 673.771 199.689 673.771 198.992V198.315L672.637 198.363C671.734 198.395 671.083 198.536 670.682 198.787C670.285 199.033 670.087 199.418 670.087 199.942C670.087 200.353 670.21 200.665 670.456 200.879C670.707 201.093 671.055 201.2 671.502 201.2ZM682.351 200.995H682.289C681.765 201.756 680.981 202.137 679.938 202.137C678.958 202.137 678.194 201.802 677.647 201.132C677.105 200.462 676.834 199.509 676.834 198.274C676.834 197.039 677.107 196.08 677.654 195.396C678.201 194.713 678.962 194.371 679.938 194.371C680.954 194.371 681.733 194.74 682.275 195.479H682.364L682.316 194.938L682.289 194.412V191.363H683.424V202H682.501L682.351 200.995ZM680.081 201.187C680.856 201.187 681.416 200.977 681.763 200.558C682.114 200.134 682.289 199.452 682.289 198.514V198.274C682.289 197.213 682.111 196.456 681.756 196.005C681.405 195.549 680.842 195.321 680.067 195.321C679.402 195.321 678.892 195.581 678.536 196.101C678.185 196.616 678.01 197.345 678.01 198.288C678.01 199.245 678.185 199.967 678.536 200.455C678.887 200.943 679.402 201.187 680.081 201.187ZM690.937 200.995H690.875C690.351 201.756 689.567 202.137 688.523 202.137C687.544 202.137 686.78 201.802 686.233 201.132C685.691 200.462 685.42 199.509 685.42 198.274C685.42 197.039 685.693 196.08 686.24 195.396C686.787 194.713 687.548 194.371 688.523 194.371C689.54 194.371 690.319 194.74 690.861 195.479H690.95L690.902 194.938L690.875 194.412V191.363H692.01V202H691.087L690.937 200.995ZM688.667 201.187C689.442 201.187 690.002 200.977 690.349 200.558C690.7 200.134 690.875 199.452 690.875 198.514V198.274C690.875 197.213 690.697 196.456 690.342 196.005C689.991 195.549 689.428 195.321 688.653 195.321C687.988 195.321 687.478 195.581 687.122 196.101C686.771 196.616 686.596 197.345 686.596 198.288C686.596 199.245 686.771 199.967 687.122 200.455C687.473 200.943 687.988 201.187 688.667 201.187ZM702.667 202L702.441 200.934H702.387C702.013 201.403 701.639 201.722 701.266 201.891C700.896 202.055 700.434 202.137 699.878 202.137C699.135 202.137 698.552 201.945 698.128 201.562C697.709 201.18 697.499 200.635 697.499 199.929C697.499 198.416 698.709 197.623 701.129 197.55L702.4 197.509V197.044C702.4 196.456 702.273 196.023 702.018 195.745C701.767 195.463 701.364 195.321 700.808 195.321C700.183 195.321 699.477 195.513 698.688 195.896L698.34 195.027C698.709 194.827 699.112 194.67 699.55 194.556C699.992 194.442 700.434 194.385 700.876 194.385C701.769 194.385 702.43 194.583 702.858 194.979C703.291 195.376 703.508 196.012 703.508 196.887V202H702.667ZM700.104 201.2C700.81 201.2 701.364 201.007 701.765 200.619C702.17 200.232 702.373 199.689 702.373 198.992V198.315L701.238 198.363C700.336 198.395 699.684 198.536 699.283 198.787C698.887 199.033 698.688 199.418 698.688 199.942C698.688 200.353 698.812 200.665 699.058 200.879C699.308 201.093 699.657 201.2 700.104 201.2ZM712.866 195.39H710.959V202H709.824V195.39H708.484V194.877L709.824 194.467V194.05C709.824 192.209 710.629 191.288 712.237 191.288C712.634 191.288 713.099 191.368 713.632 191.527L713.338 192.437C712.9 192.295 712.527 192.225 712.217 192.225C711.788 192.225 711.472 192.368 711.267 192.655C711.062 192.938 710.959 193.394 710.959 194.022V194.508H712.866V195.39ZM715.368 202H714.233V194.508H715.368V202ZM714.138 192.478C714.138 192.218 714.201 192.029 714.329 191.91C714.457 191.787 714.616 191.726 714.808 191.726C714.99 191.726 715.147 191.787 715.279 191.91C715.411 192.033 715.478 192.222 715.478 192.478C715.478 192.733 715.411 192.924 715.279 193.052C715.147 193.175 714.99 193.236 714.808 193.236C714.616 193.236 714.457 193.175 714.329 193.052C714.201 192.924 714.138 192.733 714.138 192.478ZM718.909 202H717.774V191.363H718.909V202ZM724.48 202.137C723.373 202.137 722.498 201.799 721.855 201.125C721.217 200.451 720.898 199.514 720.898 198.315C720.898 197.108 721.195 196.148 721.787 195.438C722.384 194.727 723.184 194.371 724.187 194.371C725.125 194.371 725.868 194.681 726.415 195.301C726.962 195.916 727.235 196.729 727.235 197.741V198.459H722.074C722.097 199.339 722.318 200.006 722.737 200.462C723.161 200.918 723.756 201.146 724.521 201.146C725.328 201.146 726.126 200.977 726.914 200.64V201.651C726.513 201.825 726.132 201.948 725.772 202.021C725.417 202.098 724.986 202.137 724.48 202.137ZM724.173 195.321C723.571 195.321 723.09 195.517 722.73 195.909C722.375 196.301 722.165 196.843 722.102 197.536H726.019C726.019 196.821 725.859 196.274 725.54 195.896C725.221 195.513 724.765 195.321 724.173 195.321Z" fill="#8B90A0" />
</svg>